<svg xmlns="http://www.w3.org/2000/svg" width="933.594" height="521.813" xml:space="preserve"><defs><clipPath id="b"><path d="M500.48 441.45h118.56v25.44H500.48v-25.44z"/></clipPath><clipPath id="c"><path d="M500.47 441.46h118.56v25.44H500.47v-25.44z"/></clipPath><clipPath id="e"><path d="M703.65 435.45h70.44v28.68h-70.44v-28.68z"/></clipPath><clipPath id="f"><path d="M703.66 435.46h70.44v28.68h-70.44v-28.68z"/></clipPath><clipPath id="h"><path d="M75.361 348.79h125.31v114.98H75.361V348.79z"/></clipPath><clipPath id="i"><path d="M75.36 348.79h125.3v114.98H75.36V348.79z"/></clipPath><clipPath id="j"><path d="M75.36 348.79h125.3v114.98H75.36V348.79z"/></clipPath><clipPath id="k"><path d="M75.36 348.79h125.3v114.98H75.36V348.79z"/></clipPath><clipPath id="l"><path d="M75.36 348.79h125.3v114.98H75.36V348.79z"/></clipPath><clipPath id="n"><path d="M75.361 168.04h125.31v126.27H75.361V168.04z"/></clipPath><clipPath id="o"><path d="M75.36 168.05h125.3v126.26H75.36V168.05z"/></clipPath><clipPath id="p"><path d="M75.36 168.05h125.3v126.26H75.36V168.05z"/></clipPath><clipPath id="q"><path d="M75.36 168.05h125.3v126.26H75.36V168.05z"/></clipPath><clipPath id="r"><path d="M75.36 168.05h125.3v126.26H75.36V168.05z"/></clipPath><clipPath id="s"><path d="M75.36 168.05h125.3v126.26H75.36V168.05z"/></clipPath><clipPath id="t"><path d="M75.36 168.05h125.3v126.26H75.36V168.05z"/></clipPath><clipPath id="v"><path d="M67.801 65.909h135.15v67.2H67.801v-67.2z"/></clipPath><clipPath id="w"><path d="M67.8 65.904h135.14v67.2H67.8v-67.2z"/></clipPath><clipPath id="x"><path d="M67.8 65.904h135.14v67.2H67.8v-67.2z"/></clipPath><clipPath id="y"><path d="M67.8 65.904h135.14v67.2H67.8v-67.2z"/></clipPath><clipPath id="A"><path d="M303.29 278.44h93.24v73.35h-93.24v-73.35z"/></clipPath><clipPath id="B"><path d="M303.29 278.47h93.24v73.32h-93.24v-73.32z"/></clipPath><clipPath id="C"><path d="M683.25 176.56h119.4v232.97h-119.4V176.56z"/></clipPath><clipPath id="D"><path d="M683.26 176.57h119.4v232.97h-119.4V176.57z"/></clipPath><clipPath id="E"><path d="M683.26 176.57h119.4v232.97h-119.4V176.57z"/></clipPath><clipPath id="F"><path d="M683.26 176.57h119.4v232.97h-119.4V176.57z"/></clipPath><clipPath id="G"><path d="M683.26 176.57h119.4v232.97h-119.4V176.57z"/></clipPath><clipPath id="H"><path d="M683.26 176.57h119.4v232.97h-119.4V176.57z"/></clipPath><clipPath id="I"><path d="M683.26 176.57h119.4v232.97h-119.4V176.57z"/></clipPath><clipPath id="J"><path d="M683.26 176.57h119.4v232.97h-119.4V176.57z"/></clipPath><clipPath id="K"><path d="M683.26 176.57h119.4v232.97h-119.4V176.57z"/></clipPath><clipPath id="L"><path d="M495.8 350.71h131.28v64.695H495.8V350.71z"/></clipPath><clipPath id="M"><path d="M495.79 350.71h131.28v64.704H495.79V350.71z"/></clipPath><clipPath id="N"><path d="M495.79 350.71h131.28v64.704H495.79V350.71z"/></clipPath><clipPath id="O"><path d="M495.79 350.71h131.28v64.704H495.79V350.71z"/></clipPath><clipPath id="Q"><path d="M528.8 211.84h48v28.8h-48v-28.8z"/></clipPath><clipPath id="R"><path d="M528.79 211.85h48v28.8h-48v-28.8z"/></clipPath><clipPath id="S"><path d="M497.96 68.429h117.96v119.9H497.96v-119.9z"/></clipPath><clipPath id="T"><path d="M497.95 68.424h117.96v119.9H497.95v-119.9z"/></clipPath><clipPath id="U"><path d="M497.95 68.424h117.96v119.9H497.95v-119.9z"/></clipPath><clipPath id="V"><path d="M497.95 68.424h117.96v119.9H497.95v-119.9z"/></clipPath><clipPath id="W"><path d="M497.95 68.424h117.96v119.9H497.95v-119.9z"/></clipPath><clipPath id="X"><path d="M497.95 68.424h117.96v119.9H497.95v-119.9z"/></clipPath><clipPath id="Y"><path d="M497.95 68.424h117.96v119.9H497.95v-119.9z"/></clipPath><clipPath id="Z"><path d="M497.95 68.424h117.96v119.9H497.95v-119.9z"/></clipPath><clipPath id="aa"><path d="M228.27 241.84h45.96v12.48h-45.96v-12.48z"/></clipPath><clipPath id="ab"><path d="M228.26 241.85h45.96v12.48h-45.96v-12.48z"/></clipPath><clipPath id="ac"><path d="M228.75 175.84h74.295v11.52H228.75v-11.52z"/></clipPath><clipPath id="ad"><path d="M228.74 175.85h74.304v11.52H228.74v-11.52z"/></clipPath><clipPath id="ae"><path d="M306.05 411.45h74.16v11.52h-74.16v-11.52z"/></clipPath><clipPath id="af"><path d="M306.05 411.46h74.16v11.52h-74.16v-11.52z"/></clipPath><clipPath id="ag"><path d="M183.75 332.71h70.44v39.24h-70.44v-39.24z"/></clipPath><clipPath id="ah"><path d="M183.74 332.71h70.44v39.24h-70.44v-39.24z"/></clipPath><clipPath id="ai"><path d="M183.74 332.71h70.44v39.24h-70.44v-39.24z"/></clipPath><clipPath id="aj"><path d="M414.77 240.4h75.03v14.16h-75.03V240.4z"/></clipPath><clipPath id="ak"><path d="M414.77 240.41h75.024v14.16H414.77v-14.16z"/></clipPath><clipPath id="al"><path d="M396.05 151.11h72.03v14.535h-72.03V151.11z"/></clipPath><clipPath id="am"><path d="M396.05 151.1h72v14.544h-72V151.1z"/></clipPath><clipPath id="an"><path d="M612.08 403.15h75.735v11.535H612.08V403.15z"/></clipPath><clipPath id="ao"><path d="M612.07 403.15h75.744v11.544H612.07V403.15z"/></clipPath><clipPath id="ap"><path d="M414.77 371.71h60.03v29.4h-60.03v-29.4z"/></clipPath><clipPath id="aq"><path d="M414.77 371.71h60.024v29.4H414.77v-29.4z"/></clipPath><clipPath id="ar"><path d="M414.77 371.71h60.024v29.4H414.77v-29.4z"/></clipPath><clipPath id="as"><path d="M414.77 371.71h60.024v29.4H414.77v-29.4z"/></clipPath><clipPath id="at"><path d="M690.81 79.109h101.28v46.8H690.81v-46.8z"/></clipPath><clipPath id="au"><path d="M690.82 79.104H792.1v46.8H690.82v-46.8z"/></clipPath><clipPath id="av"><path d="M690.82 79.104H792.1v46.8H690.82v-46.8z"/></clipPath><clipPath id="ax"><path d="M563.24 290.35h67.8v12.84h-67.8v-12.84z"/></clipPath><clipPath id="ay"><path d="M563.23 290.35h67.8v12.84h-67.8v-12.84z"/></clipPath><clipPath id="aA"><path d="M470.12 311.47h69.48v11.4h-69.48v-11.4z"/></clipPath><clipPath id="aB"><path d="M470.09 311.47h69.504v11.4H470.09v-11.4z"/></clipPath><clipPath id="aC"><path d="M221.55 287.11h45.96v12.6h-45.96v-12.6z"/></clipPath><clipPath id="aD"><path d="M221.54 287.11h45.96v12.6h-45.96v-12.6z"/></clipPath><linearGradient x1="559.7" y1="470.52" x2="559.7" y2="405.22" id="a" gradientUnits="userSpaceOnUse" spreadMethod="pad"><stop style="stop-color:#ff8f26;stop-opacity:1" offset="0"/><stop style="stop-color:#ff8f2a;stop-opacity:1" offset=".1"/><stop style="stop-color:#cb6c1d;stop-opacity:1" offset=".5"/><stop style="stop-color:#ff8f2a;stop-opacity:1" offset=".9"/><stop style="stop-color:#ff8f26;stop-opacity:1" offset="1"/></linearGradient><linearGradient x1="738.75" y1="503.82" x2="738.75" y2="431.82" id="d" gradientUnits="userSpaceOnUse" spreadMethod="pad"><stop style="stop-color:#769535;stop-opacity:1" offset="0"/><stop style="stop-color:#9bc348;stop-opacity:1" offset=".4"/><stop style="stop-color:#9cc746;stop-opacity:1" offset=".5"/><stop style="stop-color:#9bc348;stop-opacity:1" offset=".6"/><stop style="stop-color:#769535;stop-opacity:1" offset="1"/></linearGradient><linearGradient x1="138" y1="608.82" x2="138" y2="338.82" id="g" gradientUnits="userSpaceOnUse" spreadMethod="pad"><stop style="stop-color:#a3c4ff;stop-opacity:1" offset="0"/><stop style="stop-color:#bfd5ff;stop-opacity:1" offset=".175"/><stop style="stop-color:#e5eeff;stop-opacity:1" offset=".5"/><stop style="stop-color:#bfd5ff;stop-opacity:1" offset=".825"/><stop style="stop-color:#a3c4ff;stop-opacity:1" offset="1"/></linearGradient><linearGradient x1="138" y1="450.57" x2="138" y2="158.07" id="m" gradientUnits="userSpaceOnUse" spreadMethod="pad"><stop style="stop-color:#9eeaff;stop-opacity:1" offset="0"/><stop style="stop-color:#bbefff;stop-opacity:1" offset=".175"/><stop style="stop-color:#e4f9ff;stop-opacity:1" offset=".5"/><stop style="stop-color:#bbefff;stop-opacity:1" offset=".825"/><stop style="stop-color:#9eeaff;stop-opacity:1" offset="1"/></linearGradient><linearGradient x1="135.37" y1="223.32" x2="135.37" y2="58.32" id="u" gradientUnits="userSpaceOnUse" spreadMethod="pad"><stop style="stop-color:#c9b5e8;stop-opacity:1" offset="0"/><stop style="stop-color:#d9cbee;stop-opacity:1" offset=".175"/><stop style="stop-color:#f0eaf9;stop-opacity:1" offset=".5"/><stop style="stop-color:#d9cbee;stop-opacity:1" offset=".825"/><stop style="stop-color:#c9b5e8;stop-opacity:1" offset="1"/></linearGradient><linearGradient x1="349.87" y1="482.82" x2="349.87" y2="259.32" id="z" gradientUnits="userSpaceOnUse" spreadMethod="pad"><stop style="stop-color:#ffa2a1;stop-opacity:1" offset="0"/><stop style="stop-color:#ffbebd;stop-opacity:1" offset=".175"/><stop style="stop-color:#ffe5e5;stop-opacity:1" offset=".5"/><stop style="stop-color:#ffbebd;stop-opacity:1" offset=".825"/><stop style="stop-color:#ffa2a1;stop-opacity:1" offset="1"/></linearGradient><linearGradient x1="552.75" y1="280.32" x2="552.75" y2="208.32" id="P" gradientUnits="userSpaceOnUse" spreadMethod="pad"><stop style="stop-color:#5d417e;stop-opacity:1" offset="0"/><stop style="stop-color:#7b58a6;stop-opacity:1" offset=".4"/><stop style="stop-color:#7b57a8;stop-opacity:1" offset=".5"/><stop style="stop-color:#7b58a6;stop-opacity:1" offset=".6"/><stop style="stop-color:#5d417e;stop-opacity:1" offset="1"/></linearGradient><linearGradient x1="597.05" y1="307.32" x2="597.05" y2="265.22" id="aw" gradientUnits="userSpaceOnUse" spreadMethod="pad"><stop style="stop-color:#fabf8f;stop-opacity:1" offset="0"/><stop style="stop-color:#fabf8f;stop-opacity:1" offset="1"/></linearGradient><linearGradient x1="504.77" y1="326.97" x2="504.77" y2="287.67" id="az" gradientUnits="userSpaceOnUse" spreadMethod="pad"><stop style="stop-color:#fabf8f;stop-opacity:1" offset="0"/><stop style="stop-color:#fabf8f;stop-opacity:1" offset="1"/></linearGradient></defs><path d="m680.28 327.07-256-16.37a.49.49 0 0 0-.53.47.5.5 0 0 0 .46.53l256.01 16.37a.502.502 0 0 0 .06-1zm-250.05-19.43-6.97 3.49 6.47 4.36c.23.15.54.09.7-.14.15-.23.09-.54-.14-.69l-5.77-3.88-.05.86 6.21-3.11c.25-.12.35-.42.22-.67a.505.505 0 0 0-.67-.22z" style="fill:#4579b8;fill-opacity:1;fill-rule:nonzero;stroke:none" transform="matrix(1.25 0 0 -1.25 -79.219 592.744)"/><path d="M500.45 436.06h118.5v32.65h-118.5v-32.65z" style="fill:#000;fill-opacity:.34902003;fill-rule:evenodd;stroke:none" transform="matrix(1.25 0 0 -1.25 -79.219 592.744)"/><path d="M500.45 437.87h118.5v32.65h-118.5v-32.65z" style="fill:url(#a);fill-opacity:1;fill-rule:evenodd;stroke:none" transform="matrix(1.25 0 0 -1.25 -79.219 592.744)"/><g clip-path="url(#b)" transform="matrix(1.25 0 0 -1.25 -79.219 592.744)"><g clip-path="url(#c)"><text transform="matrix(1 0 0 -1 507.67 456.46)"><tspan x="0 9.4723196 12.01152 15.70992 19.408319 21.83712 27.335039 31.188 33.70512 38.021759 43.784641 52.649761 55.045441 62.011681 67.509598 71.362556 73.901756 78.571678 84.323517" y="0" style="font-size:11.03999996px;font-variant:normal;font-weight:400;writing-mode:lr-tb;fill:#000;fill-opacity:1;fill-rule:nonzero;stroke:none;font-family:Calibri;-inkscape-font-specification:Calibri">Mittler zum Gericht</tspan></text></g></g><path d="M703.5 430.01H774v36h-70.5v-36z" style="fill:#000;fill-opacity:.34902003;fill-rule:evenodd;stroke:none" transform="matrix(1.25 0 0 -1.25 -79.219 592.744)"/><path d="M703.5 431.82H774v36h-70.5v-36z" style="fill:url(#d);fill-opacity:1;fill-rule:evenodd;stroke:none" transform="matrix(1.25 0 0 -1.25 -79.219 592.744)"/><g clip-path="url(#e)" transform="matrix(1.25 0 0 -1.25 -79.219 592.744)"><g clip-path="url(#f)"><text transform="matrix(1 0 0 -1 722.38 453.58)"><tspan x="0 6.9662399 12.46416 16.31712 18.856319 23.526239 29.27808" y="0" style="font-size:11.03999996px;font-variant:normal;font-weight:400;writing-mode:lr-tb;fill:#000;fill-opacity:1;fill-rule:nonzero;stroke:none;font-family:Calibri;-inkscape-font-specification:Calibri">Gericht</tspan></text></g></g><path d="M91.5 472.25c-12.425 0-22.5-10.08-22.5-22.5v-90c0-12.43 10.075-22.5 22.5-22.5h93c12.42 0 22.5 10.07 22.5 22.5v90c0 12.42-10.08 22.5-22.5 22.5h-93z" style="fill:#000;fill-opacity:.38039;fill-rule:evenodd;stroke:none" transform="matrix(1.25 0 0 -1.25 -79.219 592.744)"/><path d="M91.5 473.82c-12.425 0-22.5-10.07-22.5-22.5v-90c0-12.42 10.075-22.5 22.5-22.5h93c12.42 0 22.5 10.08 22.5 22.5v90c0 12.43-10.08 22.5-22.5 22.5h-93z" style="fill:url(#g);fill-opacity:1;fill-rule:evenodd;stroke:none" transform="matrix(1.25 0 0 -1.25 -79.219 592.744)"/><path d="M91.5 473.82c-12.425 0-22.5-10.07-22.5-22.5v-90c0-12.42 10.075-22.5 22.5-22.5h93c12.42 0 22.5 10.08 22.5 22.5v90c0 12.43-10.08 22.5-22.5 22.5h-93z" style="fill:none;stroke:#4579b8;stroke-width:.75;stroke-linecap:round;stroke-linejoin:round;stroke-miterlimit:10;stroke-opacity:1;stroke-dasharray:none" transform="matrix(1.25 0 0 -1.25 -79.219 592.744)"/><g clip-path="url(#h)" transform="matrix(1.25 0 0 -1.25 -79.219 592.744)"><g clip-path="url(#i)"><text transform="matrix(1 0 0 -1 121.46 453.34)"><tspan x="0 5.0673599 10.44384 19.419359 22.190399 24.82896 27.577921" y="0" style="font-size:11.03999996px;font-variant:normal;font-weight:700;writing-mode:lr-tb;fill:#215868;fill-opacity:1;fill-rule:nonzero;stroke:none;font-family:Calibri;-inkscape-font-specification:Calibri Bold">Familie</tspan></text></g><path d="M121.46 451.42h33.12v.72h-33.12v-.72z" style="fill:#215868;fill-opacity:1;fill-rule:evenodd;stroke:none"/><g clip-path="url(#j)"><text transform="matrix(1 0 0 -1 124.94 427.9)"><tspan x="0 7.3084798 13.10448 18.12768 23.625601" y="0" style="font-size:11.03999996px;font-variant:normal;font-weight:400;writing-mode:lr-tb;fill:#000;fill-opacity:1;fill-rule:nonzero;stroke:none;font-family:Calibri;-inkscape-font-specification:Calibri">Onkel</tspan></text></g><g clip-path="url(#k)"><text transform="matrix(1 0 0 -1 127.82 402.43)"><tspan x="0 5.3875198 9.2404804 15.00336" y="0" style="font-size:11.03999996px;font-variant:normal;font-weight:400;writing-mode:lr-tb;fill:#000;fill-opacity:1;fill-rule:nonzero;stroke:none;font-family:Calibri;-inkscape-font-specification:Calibri">Erna</tspan></text></g><g clip-path="url(#l)"><text transform="matrix(1 0 0 -1 122.06 376.87)"><tspan x="0 9.4723196 15.2352 18.933599 22.665119 28.16304" y="0" style="font-size:11.03999996px;font-variant:normal;font-weight:400;writing-mode:lr-tb;fill:#000;fill-opacity:1;fill-rule:nonzero;stroke:none;font-family:Calibri;-inkscape-font-specification:Calibri">Mutter</tspan></text></g></g><path d="M92 302.75c-12.701 0-23-10.3-23-23.01V179.5c0-12.71 10.299-23 23-23h92c12.7 0 23 10.29 23 23v100.24c0 12.71-10.3 23.01-23 23.01H92z" style="fill:#000;fill-opacity:.38039;fill-rule:evenodd;stroke:none" transform="matrix(1.25 0 0 -1.25 -79.219 592.744)"/><path d="M92 304.32c-12.701 0-23-10.3-23-23V181.07c0-12.7 10.299-23 23-23h92c12.7 0 23 10.3 23 23v100.25c0 12.7-10.3 23-23 23H92z" style="fill:url(#m);fill-opacity:1;fill-rule:evenodd;stroke:none" transform="matrix(1.25 0 0 -1.25 -79.219 592.744)"/><path d="M92 304.32c-12.701 0-23-10.3-23-23V181.07c0-12.7 10.299-23 23-23h92c12.7 0 23 10.3 23 23v100.25c0 12.7-10.3 23-23 23H92z" style="fill:none;stroke:#40a7c2;stroke-width:.75;stroke-linecap:round;stroke-linejoin:round;stroke-miterlimit:10;stroke-opacity:1;stroke-dasharray:none" transform="matrix(1.25 0 0 -1.25 -79.219 592.744)"/><g clip-path="url(#n)" transform="matrix(1.25 0 0 -1.25 -79.219 592.744)"><g clip-path="url(#o)"><text transform="matrix(1 0 0 -1 122.18 283.87)"><tspan x="0 5.0673599 8.9865599 14.39616 20.280479 25.80048" y="0" style="font-size:11.03999996px;font-variant:normal;font-weight:700;writing-mode:lr-tb;fill:#215868;fill-opacity:1;fill-rule:nonzero;stroke:none;font-family:Calibri;-inkscape-font-specification:Calibri Bold">Frauen</tspan></text></g><path d="M122.18 281.95h31.68v.72h-31.68v-.72z" style="fill:#215868;fill-opacity:1;fill-rule:evenodd;stroke:none"/><g clip-path="url(#p)"><text transform="matrix(1 0 0 -1 129.26 258.41)"><tspan x="0 5.3875198 7.9267201 12.24336" y="0" style="font-size:11.03999996px;font-variant:normal;font-weight:400;writing-mode:lr-tb;fill:#000;fill-opacity:1;fill-rule:nonzero;stroke:none;font-family:Calibri;-inkscape-font-specification:Calibri">Elsa</tspan></text></g><g clip-path="url(#q)"><text transform="matrix(1 0 0 -1 111.62 232.97)"><tspan x="0 5.0673599 8.8761597 11.65824 14.15328 20.15904 25.910879 29.76384 34.080479 37.778881 43.574879 49.0728" y="0" style="font-size:11.03999996px;font-variant:normal;font-weight:400;writing-mode:lr-tb;fill:#000;fill-opacity:1;fill-rule:nonzero;stroke:none;font-family:Calibri;-inkscape-font-specification:Calibri">Fr. Bürstner</tspan></text></g><g clip-path="url(#r)"><text transform="matrix(1 0 0 -1 128.78 207.53)"><tspan x="0 4.66992 10.16784 15.96384" y="0" style="font-size:11.03999996px;font-variant:normal;font-weight:400;writing-mode:lr-tb;fill:#000;fill-opacity:1;fill-rule:nonzero;stroke:none;font-family:Calibri;-inkscape-font-specification:Calibri">Leni</tspan></text></g><g clip-path="url(#s)"><text transform="matrix(1 0 0 -1 90.24 182.09)"><tspan x="0 5.0399599" y="0" style="font-size:11.03999996px;font-variant:normal;font-weight:400;writing-mode:lr-tb;fill:#000;fill-opacity:1;fill-rule:nonzero;stroke:none;font-family:Calibri;-inkscape-font-specification:Calibri">Fr</tspan></text></g><g clip-path="url(#t)"><text transform="matrix(1 0 0 -1 99.144 182.09)"><tspan x="0 2.7820799 5.2771201 11.04 13.82208 16.31712 23.28336 28.781281 32.634239 35.173439 39.843361 45.5952 49.293598 53.610241 59.406239 61.945438 67.443359 73.195198 78.593758 82.446716" y="0" style="font-size:11.03999996px;font-variant:normal;font-weight:400;writing-mode:lr-tb;fill:#000;fill-opacity:1;fill-rule:nonzero;stroke:none;font-family:Calibri;-inkscape-font-specification:Calibri">. d. Gerichtsdieners</tspan></text></g></g><path d="M77.5 139.25c-7.593 0-13.75-6.16-13.75-13.75V70.495c0-7.593 6.157-13.75 13.75-13.75h115.75c7.59 0 13.75 6.157 13.75 13.75V125.5c0 7.59-6.16 13.75-13.75 13.75H77.5z" style="fill:#000;fill-opacity:.38039;fill-rule:evenodd;stroke:none" transform="matrix(1.25 0 0 -1.25 -79.219 592.744)"/><path d="M77.5 140.82c-7.593 0-13.75-6.16-13.75-13.75v-55c0-7.593 6.157-13.75 13.75-13.75h115.75c7.59 0 13.75 6.157 13.75 13.75v55c0 7.59-6.16 13.75-13.75 13.75H77.5z" style="fill:url(#u);fill-opacity:1;fill-rule:evenodd;stroke:none" transform="matrix(1.25 0 0 -1.25 -79.219 592.744)"/><path d="M77.5 140.82c-7.593 0-13.75-6.16-13.75-13.75v-55c0-7.593 6.157-13.75 13.75-13.75h115.75c7.59 0 13.75 6.157 13.75 13.75v55c0 7.59-6.16 13.75-13.75 13.75H77.5z" style="fill:none;stroke:#795d9b;stroke-width:.75;stroke-linecap:round;stroke-linejoin:round;stroke-miterlimit:10;stroke-opacity:1;stroke-dasharray:none" transform="matrix(1.25 0 0 -1.25 -79.219 592.744)"/><g clip-path="url(#v)" transform="matrix(1.25 0 0 -1.25 -79.219 592.744)"><g clip-path="url(#w)"><text transform="matrix(1 0 0 -1 97.704 122.66)"><tspan x="0 6.8448 12.13296 17.8848 23.64768 27.346081 36.23328 41.521439 47.273281 53.03616 55.5312 60.223202 65.51136 71.263199" y="0" style="font-size:11.03999996px;font-variant:normal;font-weight:400;writing-mode:lr-tb;fill:#000;fill-opacity:1;fill-rule:nonzero;stroke:none;font-family:Calibri;-inkscape-font-specification:Calibri">Hauptmann Lanz</tspan></text></g><g clip-path="url(#x)"><text transform="matrix(1 0 0 -1 86.76 97.224)"><tspan x="0 5.0673599 8.7657604 14.05392 17.752319 21.45072 25.767361 31.055519 36.851521 44.745121 50.033279 52.439999 56.138401 58.666561 65.51136 70.799522 75.116158 78.715202 84.21312 88.066078 93.564003" y="0" style="font-size:11.03999996px;font-variant:normal;font-weight:400;writing-mode:lr-tb;fill:#000;fill-opacity:1;fill-rule:nonzero;stroke:none;font-family:Calibri;-inkscape-font-specification:Calibri">Stattsanwalt Hasterer</tspan></text></g><g clip-path="url(#y)"><text transform="matrix(1 0 0 -1 114.26 71.784)"><tspan x="0 5.0673599 10.3224 16.085279 19.93824 22.47744 27.500641 32.788799 38.529598" y="0" style="font-size:11.03999996px;font-variant:normal;font-weight:400;writing-mode:lr-tb;fill:#000;fill-opacity:1;fill-rule:nonzero;stroke:none;font-family:Calibri;-inkscape-font-specification:Calibri">Fabrikant</tspan></text></g></g><path d="M349.88 369.5c-35.01 0-63.38-25.02-63.38-55.88 0-30.86 28.37-55.87 63.38-55.87 35 0 63.37 25.01 63.37 55.87 0 30.86-28.37 55.88-63.37 55.88z" style="fill:#000;fill-opacity:.38039;fill-rule:evenodd;stroke:none" transform="matrix(1.25 0 0 -1.25 -79.219 592.744)"/><path d="M349.88 371.07c-35.01 0-63.38-25.01-63.38-55.87 0-30.87 28.37-55.88 63.38-55.88 35 0 63.37 25.01 63.37 55.88 0 30.86-28.37 55.87-63.37 55.87z" style="fill:url(#z);fill-opacity:1;fill-rule:evenodd;stroke:none" transform="matrix(1.25 0 0 -1.25 -79.219 592.744)"/><path d="M349.88 371.07c-35.01 0-63.38-25.01-63.38-55.87 0-30.87 28.37-55.88 63.38-55.88 35 0 63.37 25.01 63.37 55.88 0 30.86-28.37 55.87-63.37 55.87z" style="fill:none;stroke:#bc4542;stroke-width:.75;stroke-linecap:round;stroke-linejoin:round;stroke-miterlimit:10;stroke-opacity:1;stroke-dasharray:none" transform="matrix(1.25 0 0 -1.25 -79.219 592.744)"/><g clip-path="url(#A)" transform="matrix(1.25 0 0 -1.25 -79.219 592.744)"><g clip-path="url(#B)"><text transform="matrix(1 0 0 -1 316.49 330.91)"><tspan x="0 7.00524 18.578159 27.208441 38.14452 44.842319 49.805279 61.22448" y="0" style="font-size:21.95999908px;font-variant:normal;font-weight:400;writing-mode:lr-tb;fill:#000;fill-opacity:1;fill-rule:nonzero;stroke:none;font-family:Calibri;-inkscape-font-specification:Calibri">Josef K.</tspan></text></g></g><path d="M698.63 419.82c-12.22 0-22.13-9.91-22.13-22.13V188.45c0-12.22 9.91-22.13 22.13-22.13h88.5c12.21 0 22.12 9.91 22.12 22.13v209.24c0 12.22-9.91 22.13-22.12 22.13h-88.5z" style="fill:#fff;fill-opacity:1;fill-rule:evenodd;stroke:none" transform="matrix(1.25 0 0 -1.25 -79.219 592.744)"/><path d="M698.63 419.82c-12.22 0-22.13-9.91-22.13-22.13V188.45c0-12.22 9.91-22.13 22.13-22.13h88.5c12.21 0 22.12 9.91 22.12 22.13v209.24c0 12.22-9.91 22.13-22.12 22.13h-88.5z" style="fill:none;stroke:#9bbb59;stroke-width:2;stroke-linecap:round;stroke-linejoin:round;stroke-miterlimit:10;stroke-opacity:1;stroke-dasharray:none" transform="matrix(1.25 0 0 -1.25 -79.219 592.744)"/><g clip-path="url(#C)" transform="matrix(1.25 0 0 -1.25 -79.219 592.744)"><g clip-path="url(#D)"><text transform="matrix(1 0 0 -1 710.38 399.07)"><tspan x="0 5.7407999 11.02896 16.824961 21.11952 23.65872 29.156639 31.695841 37.436642 42.934559 46.787521 51.810719 55.431839 61.305119" y="0" style="font-size:11.03999996px;font-variant:normal;font-weight:400;writing-mode:lr-tb;fill:#000;fill-opacity:1;fill-rule:nonzero;stroke:none;font-family:Calibri;-inkscape-font-specification:Calibri">Kanzleiderktor</tspan></text></g><g clip-path="url(#E)"><text transform="matrix(1 0 0 -1 691.06 373.63)"><tspan x="0 5.7407999 11.02896 16.824961 21.11952 23.65872 29.156639 31.695841 37.436642 42.934559 48.222721 56.999519 60.697922 66.228958 68.723999 73.669922 77.368317 83.164322 88.905121 94.403038 100.19904" y="0" style="font-size:11.03999996px;font-variant:normal;font-weight:400;writing-mode:lr-tb;fill:#000;fill-opacity:1;fill-rule:nonzero;stroke:none;font-family:Calibri;-inkscape-font-specification:Calibri">Kanzleibeamte Student</tspan></text></g><g clip-path="url(#F)"><text transform="matrix(1 0 0 -1 722.74 348.19)"><tspan x="0 6.3921599 12.12192 15.48912 19.805759 25.30368 31.09968 36.597599" y="0" style="font-size:11.03999996px;font-variant:normal;font-weight:400;writing-mode:lr-tb;fill:#000;fill-opacity:1;fill-rule:nonzero;stroke:none;font-family:Calibri;-inkscape-font-specification:Calibri">Aufseher</tspan></text></g><g clip-path="url(#G)"><text transform="matrix(1 0 0 -1 723.7 322.75)"><tspan x="0 9.8255997 15.11376 19.78368 25.579679 29.27808 34.776001" y="0" style="font-size:11.03999996px;font-variant:normal;font-weight:400;writing-mode:lr-tb;fill:#000;fill-opacity:1;fill-rule:nonzero;stroke:none;font-family:Calibri;-inkscape-font-specification:Calibri">Wächter</tspan></text></g><g clip-path="url(#H)"><text transform="matrix(1 0 0 -1 726.7 297.31)"><tspan x="0 6.8448 12.34272 18.13872 23.161921 28.65984" y="0" style="font-size:11.03999996px;font-variant:normal;font-weight:400;writing-mode:lr-tb;fill:#000;fill-opacity:1;fill-rule:nonzero;stroke:none;font-family:Calibri;-inkscape-font-specification:Calibri">Henker</tspan></text></g><g clip-path="url(#I)"><text transform="matrix(1 0 0 -1 709.9 271.85)"><tspan x="0 6.9662399 12.46416 16.31712 18.856319 23.526239 29.27808 32.976479 37.293121 43.089119 45.628319 51.12624 56.878078" y="0" style="font-size:11.03999996px;font-variant:normal;font-weight:400;writing-mode:lr-tb;fill:#000;fill-opacity:1;fill-rule:nonzero;stroke:none;font-family:Calibri;-inkscape-font-specification:Calibri">Gerichtsdiene</tspan></text></g><g clip-path="url(#J)"><text transform="matrix(1 0 0 -1 772.18 271.85)"><tspan x="0" y="0" style="font-size:11.03999996px;font-variant:normal;font-weight:400;writing-mode:lr-tb;fill:#000;fill-opacity:1;fill-rule:nonzero;stroke:none;font-family:Calibri;-inkscape-font-specification:Calibri">r</tspan></text></g><g clip-path="url(#K)"><text transform="matrix(1 0 0 -1 694.3 246.41)"><tspan x="0 7.0876799 12.83952 16.53792 22.06896 25.921921 30.23856 35.990398 40.66032 46.456322 52.186081 57.948959 63.104641 67.42128 71.274239 73.813438 78.48336 84.224159 87.922562 93.453598" y="0" style="font-size:11.03999996px;font-variant:normal;font-weight:400;writing-mode:lr-tb;fill:#000;fill-opacity:1;fill-rule:nonzero;stroke:none;font-family:Calibri;-inkscape-font-specification:Calibri">Untersuchungsrichter</tspan></text></g></g><path d="M504.75 423.57c-7.46 0-13.5-6.04-13.5-13.5v-54c0-7.46 6.04-13.5 13.5-13.5H618c7.45 0 13.5 6.04 13.5 13.5v54c0 7.46-6.05 13.5-13.5 13.5H504.75z" style="fill:#fff;fill-opacity:1;fill-rule:evenodd;stroke:none" transform="matrix(1.25 0 0 -1.25 -79.219 592.744)"/><path d="M504.75 423.57c-7.46 0-13.5-6.04-13.5-13.5v-54c0-7.46 6.04-13.5 13.5-13.5H618c7.45 0 13.5 6.04 13.5 13.5v54c0 7.46-6.05 13.5-13.5 13.5H504.75z" style="fill:none;stroke:#f79646;stroke-width:2;stroke-linecap:round;stroke-linejoin:round;stroke-miterlimit:10;stroke-opacity:1;stroke-dasharray:none" transform="matrix(1.25 0 0 -1.25 -79.219 592.744)"/><g clip-path="url(#L)" transform="matrix(1.25 0 0 -1.25 -79.219 592.744)"><g clip-path="url(#M)"><text transform="matrix(1 0 0 -1 531.31 404.95)"><tspan x="0 6.3921599 12.12192 17.15616 23.02944 28.052641 33.2304 36.928799 39.456959 46.301762 52.06464 54.60384" y="0" style="font-size:11.03999996px;font-variant:normal;font-weight:400;writing-mode:lr-tb;fill:#000;fill-opacity:1;fill-rule:nonzero;stroke:none;font-family:Calibri;-inkscape-font-specification:Calibri">Advokat Huld</tspan></text></g><g clip-path="url(#N)"><text transform="matrix(1 0 0 -1 544.27 379.51)"><tspan x="0 5.3764801 7.9156799 11.61408 17.509439 21.229919 26.72784 29.26704 31.80624" y="0" style="font-size:11.03999996px;font-variant:normal;font-weight:400;writing-mode:lr-tb;fill:#000;fill-opacity:1;fill-rule:nonzero;stroke:none;font-family:Calibri;-inkscape-font-specification:Calibri">Titorelli</tspan></text></g><g clip-path="url(#O)"><text transform="matrix(1 0 0 -1 524.23 354.07)"><tspan x="0 6.9662399 12.46416 15.83136 21.11952 26.882401 32.038078 37.800961 40.34016 44.656799 49.68 54.968159 60.720001 63.259201 68.547363" y="0" style="font-size:11.03999996px;font-variant:normal;font-weight:400;writing-mode:lr-tb;fill:#000;fill-opacity:1;fill-rule:nonzero;stroke:none;font-family:Calibri;-inkscape-font-specification:Calibri">Gefängniskaplan</tspan></text></g></g><path d="M528.75 206.51h48v36h-48v-36z" style="fill:#000;fill-opacity:.34902003;fill-rule:evenodd;stroke:none" transform="matrix(1.25 0 0 -1.25 -79.219 592.744)"/><path d="M528.75 208.32h48v36h-48v-36z" style="fill:url(#P);fill-opacity:1;fill-rule:evenodd;stroke:none" transform="matrix(1.25 0 0 -1.25 -79.219 592.744)"/><g clip-path="url(#Q)" transform="matrix(1.25 0 0 -1.25 -79.219 592.744)"><g clip-path="url(#R)"><text transform="matrix(1 0 0 -1 540.55 230.21)"><tspan x="0 6.0057602 11.50368 15.35664 21.152639" y="0" style="font-size:11.03999996px;font-variant:normal;font-weight:400;writing-mode:lr-tb;fill:#000;fill-opacity:1;fill-rule:nonzero;stroke:none;font-family:Calibri;-inkscape-font-specification:Calibri">Beruf</tspan></text></g></g><path d="M513.12 198.57c-12.07 0-21.87-9.8-21.87-21.88V80.195c0-12.08 9.8-21.875 21.87-21.875h87.51c12.07 0 21.87 9.795 21.87 21.875v96.495c0 12.08-9.8 21.88-21.87 21.88h-87.51z" style="fill:#fff;fill-opacity:1;fill-rule:evenodd;stroke:none" transform="matrix(1.25 0 0 -1.25 -79.219 592.744)"/><path d="M513.12 198.57c-12.07 0-21.87-9.8-21.87-21.88V80.195c0-12.08 9.8-21.875 21.87-21.875h87.51c12.07 0 21.87 9.795 21.87 21.875v96.495c0 12.08-9.8 21.88-21.87 21.88h-87.51z" style="fill:none;stroke:#8064a2;stroke-width:2;stroke-linecap:round;stroke-linejoin:round;stroke-miterlimit:10;stroke-opacity:1;stroke-dasharray:none" transform="matrix(1.25 0 0 -1.25 -79.219 592.744)"/><g clip-path="url(#S)" transform="matrix(1.25 0 0 -1.25 -79.219 592.744)"><g clip-path="url(#T)"><text transform="matrix(1 0 0 -1 527.95 177.89)"><tspan x="0 6.0057602 11.29392 17.034719 22.05792 27.85392 30.360001 34.212959 39.71088 44.734081 48.355202 54.228481" y="0" style="font-size:11.03999996px;font-variant:normal;font-weight:400;writing-mode:lr-tb;fill:#000;fill-opacity:1;fill-rule:nonzero;stroke:none;font-family:Calibri;-inkscape-font-specification:Calibri">Bankdirektor</tspan></text></g><g clip-path="url(#U)"><text transform="matrix(1 0 0 -1 507.07 152.45)"><tspan x="0 6.8337598 9.3729601 13.22592 18.723841 23.636641 27.335039 33.2304" y="0" style="font-size:11.03999996px;font-variant:normal;font-weight:400;writing-mode:lr-tb;fill:#000;fill-opacity:1;fill-rule:nonzero;stroke:none;font-family:Calibri;-inkscape-font-specification:Calibri">Direktor</tspan></text></g><g clip-path="url(#V)"><text transform="matrix(1 0 0 -1 544.15 152.45)"><tspan x="0" y="0" style="font-size:11.03999996px;font-variant:normal;font-weight:400;writing-mode:lr-tb;fill:#000;fill-opacity:1;fill-rule:nonzero;stroke:none;font-family:Calibri;-inkscape-font-specification:Calibri">-</tspan></text></g><g clip-path="url(#W)"><text transform="matrix(1 0 0 -1 547.51 152.45)"><tspan x="0 5.0673599 8.6443195 14.14224 16.68144 19.22064 24.1224 29.620319 33.473282 37.17168 41.024639 46.445278 50.143681 55.674721" y="0" style="font-size:11.03999996px;font-variant:normal;font-weight:400;writing-mode:lr-tb;fill:#000;fill-opacity:1;fill-rule:nonzero;stroke:none;font-family:Calibri;-inkscape-font-specification:Calibri">Stellvertreter</tspan></text></g><g clip-path="url(#X)"><text transform="matrix(1 0 0 -1 521.23 126.98)"><tspan x="0 6.0057602 11.29392 17.034719 22.05792 27.346081 33.142078 38.275681 43.773602 48.09024 51.821758 57.319679 59.858879 62.265598 65.963997" y="0" style="font-size:11.03999996px;font-variant:normal;font-weight:400;writing-mode:lr-tb;fill:#000;fill-opacity:1;fill-rule:nonzero;stroke:none;font-family:Calibri;-inkscape-font-specification:Calibri">Bankangestellte</tspan></text></g><g clip-path="url(#Y)"><text transform="matrix(1 0 0 -1 524.23 101.66)"><tspan x="0 3.34512 9.3398399 14.628 20.424 25.921921 31.684799 36.001438 39.699841 45.230881 47.770081 53.389439 58.88736 62.740318 65.50032" y="0" style="font-size:11.03999996px;font-variant:normal;font-weight:400;writing-mode:lr-tb;fill:#000;fill-opacity:1;fill-rule:nonzero;stroke:none;font-family:Calibri;-inkscape-font-specification:Calibri">(Rabensteiner, </tspan></text></g><g clip-path="url(#Z)"><text transform="matrix(1 0 0 -1 519.19 86.064)"><tspan x="0 5.7407999 11.02896 19.905121 22.444321 28.18512 33.683041 37.425598 40.1856 42.680641 48.454559 54.217442 56.756641 59.262718 61.801922 66.47184 72.223679" y="0" style="font-size:11.03999996px;font-variant:normal;font-weight:400;writing-mode:lr-tb;fill:#000;fill-opacity:1;fill-rule:nonzero;stroke:none;font-family:Calibri;-inkscape-font-specification:Calibri">Kaminer, Kullich)</tspan></text></g></g><path d="m155.51 264.14 128.93 40.06c.27.09.55-.06.63-.32a.506.506 0 0 0-.33-.63l-128.93-40.06a.49.49 0 0 0-.63.33.5.5 0 0 0 .33.62zm6.81-2.53-7.61 1.76 5.27 5.75c.19.21.51.22.71.04.2-.19.22-.51.03-.71l-4.69-5.12-.26.82 6.77-1.56c.27-.06.44-.33.38-.6a.513.513 0 0 0-.6-.38zm115.61 44.17 7.61-1.76-5.27-5.75a.496.496 0 0 0-.71-.03c-.2.18-.22.5-.03.7l4.69 5.12.26-.82-6.77 1.56c-.27.06-.44.33-.38.6.07.27.34.44.6.38zm-57.57-82.94-40.07 11.45c-.27.08-.42.35-.35.62.08.26.35.42.62.34l40.08-11.45a.501.501 0 0 0-.28-.96zm-35.49 6.57-5.4 5.63 7.56 1.93c.27.07.54-.09.61-.36.07-.27-.1-.54-.36-.61l-6.73-1.71.23.83 4.81-5.02c.19-.2.19-.51-.01-.7-.2-.2-.52-.19-.71.01z" style="fill:#4579b8;fill-opacity:1;fill-rule:nonzero;stroke:none" transform="matrix(1.25 0 0 -1.25 -79.219 592.744)"/><path d="m220.62 222.83-58.06-14.51a.49.49 0 0 0-.6.36c-.07.27.09.54.36.61l58.06 14.52c.27.06.54-.1.61-.37.06-.27-.1-.54-.37-.61zm-51.65-16.45-7.49 2.18 5.58 5.45c.2.2.52.19.71 0 .19-.2.19-.52-.01-.71l-4.97-4.85-.21.84 6.67-1.94a.505.505 0 0 0-.28-.97z" style="fill:#4579b8;fill-opacity:1;fill-rule:nonzero;stroke:none" transform="matrix(1.25 0 0 -1.25 -79.219 592.744)"/><path d="m220.88 223-24.95-29.23a.506.506 0 0 0-.71-.06c-.21.18-.23.5-.05.71l24.95 29.22c.18.21.49.24.7.06.21-.18.24-.49.06-.7zm-18.61-27.09-7.37-2.57 1.39 7.68a.499.499 0 0 0 .98-.18l-1.23-6.84-.66.56 6.56 2.29c.26.1.55-.04.64-.3a.506.506 0 0 0-.31-.64z" style="fill:#4579b8;fill-opacity:1;fill-rule:nonzero;stroke:none" transform="matrix(1.25 0 0 -1.25 -79.219 592.744)"/><path d="m220.5 223.32 75 55.5" style="fill:none;stroke:#4579b8;stroke-width:.75;stroke-linecap:round;stroke-linejoin:round;stroke-miterlimit:10;stroke-opacity:1;stroke-dasharray:none" transform="matrix(1.25 0 0 -1.25 -79.219 592.744)"/><path d="M227.25 237.22h48v21.75h-48v-21.75z" style="fill:#c0504d;fill-opacity:1;fill-rule:evenodd;stroke:none" transform="matrix(1.25 0 0 -1.25 -79.219 592.744)"/><path d="M227.25 237.22h48v21.75h-48v-21.75z" style="fill:none;stroke:#622423;stroke-width:2;stroke-linecap:round;stroke-linejoin:miter;stroke-miterlimit:8;stroke-opacity:1;stroke-dasharray:none" transform="matrix(1.25 0 0 -1.25 -79.219 592.744)"/><g clip-path="url(#aa)" transform="matrix(1.25 0 0 -1.25 -79.219 592.744)"><g clip-path="url(#ab)"><text transform="matrix(1 0 0 -1 243.62 243.89)"><tspan x="0 5.0673599 10.56528" y="0" style="font-size:11.03999996px;font-variant:normal;font-weight:400;writing-mode:lr-tb;fill:#fff;fill-opacity:1;fill-rule:nonzero;stroke:none;font-family:Calibri;-inkscape-font-specification:Calibri">Sex</tspan></text></g></g><path d="M326.23 276.95 189.99 108.31a.485.485 0 0 0-.7-.07c-.21.17-.25.48-.07.7l136.23 168.64c.18.21.49.25.71.07.21-.17.25-.48.07-.7zm-7.06-1.69 7.3 2.78-1.18-7.72a.505.505 0 0 0-.57-.42c-.27.04-.46.3-.42.57l1.05 6.87.67-.54-6.49-2.47c-.26-.1-.55.03-.65.29-.1.26.03.55.29.64zM196.28 110.63l-7.3-2.78 1.18 7.72c.04.27.3.46.57.42.27-.04.46-.3.42-.57l-1.05-6.87-.67.54 6.49 2.47c.26.1.55-.03.65-.29.1-.26-.03-.55-.29-.64z" style="fill:#4579b8;fill-opacity:1;fill-rule:nonzero;stroke:none" transform="matrix(1.25 0 0 -1.25 -79.219 592.744)"/><path d="M228.75 189.5v-18.75H303v18.75h-74.25zm77.25 3v-24.75h-80.25v24.75H306zm-78.75-1.5v-21.75h77.25V191h-77.25zm0 0v-21.75h77.25V191h-77.25z" style="fill:#000;fill-opacity:.38039;fill-rule:nonzero;stroke:none" transform="matrix(1.25 0 0 -1.25 -79.219 592.744)"/><path d="M227.25 170.82h77.25v21.75h-77.25v-21.75z" style="fill:#4f81bd;fill-opacity:1;fill-rule:evenodd;stroke:none" transform="matrix(1.25 0 0 -1.25 -79.219 592.744)"/><path d="M227.25 170.82h77.25v21.75h-77.25v-21.75z" style="fill:none;stroke:#fff;stroke-width:3;stroke-linecap:round;stroke-linejoin:miter;stroke-miterlimit:8;stroke-opacity:1;stroke-dasharray:none" transform="matrix(1.25 0 0 -1.25 -79.219 592.744)"/><g clip-path="url(#ac)" transform="matrix(1.25 0 0 -1.25 -79.219 592.744)"><g clip-path="url(#ad)"><text transform="matrix(1 0 0 -1 235.94 176.93)"><tspan x="0 5.0673599 8.8761597 14.37408 20.17008 25.910879 31.673759 35.990398 40.66032 46.456322 51.74448 55.07856" y="0" style="font-size:11.03999996px;font-variant:normal;font-weight:400;writing-mode:lr-tb;fill:#fff;fill-opacity:1;fill-rule:nonzero;stroke:none;font-family:Calibri;-inkscape-font-specification:Calibri">Freundschaft</tspan></text></g></g><path d="m161.72 423.99 358.26-14.84c.27-.01.49-.24.48-.52a.515.515 0 0 0-.52-.48l-358.26 14.84c-.28.01-.49.24-.48.52.01.27.24.49.52.48zm5.56-4.67-6.57 4.21 6.89 3.65c.25.13.55.03.68-.21s.04-.55-.21-.68l-6.14-3.24.04.86 5.85-3.75a.499.499 0 1 0-.54-.84zm347.09-6.5 6.57-4.21-6.89-3.65a.507.507 0 0 0-.68.21c-.13.24-.04.55.21.68l6.14 3.24-.04-.86-5.85 3.75a.5.5 0 0 0-.15.69c.15.23.46.3.69.15z" style="fill:#4579b8;fill-opacity:1;fill-rule:nonzero;stroke:none" transform="matrix(1.25 0 0 -1.25 -79.219 592.744)"/><path d="M306 425v-18.75h74.25V425H306zm77.25 3v-24.75H303V428h80.25zm-78.75-1.5v-21.75h77.25v21.75H304.5zm0 0v-21.75h77.25v21.75H304.5z" style="fill:#000;fill-opacity:.38039;fill-rule:nonzero;stroke:none" transform="matrix(1.25 0 0 -1.25 -79.219 592.744)"/><path d="M304.5 406.32h77.25v21.75H304.5v-21.75z" style="fill:#4f81bd;fill-opacity:1;fill-rule:evenodd;stroke:none" transform="matrix(1.25 0 0 -1.25 -79.219 592.744)"/><path d="M304.5 406.32h77.25v21.75H304.5v-21.75z" style="fill:none;stroke:#fff;stroke-width:3;stroke-linecap:round;stroke-linejoin:miter;stroke-miterlimit:8;stroke-opacity:1;stroke-dasharray:none" transform="matrix(1.25 0 0 -1.25 -79.219 592.744)"/><g clip-path="url(#ae)" transform="matrix(1.25 0 0 -1.25 -79.219 592.744)"><g clip-path="url(#af)"><text transform="matrix(1 0 0 -1 313.25 412.54)"><tspan x="0 5.0673599 8.8761597 14.37408 20.17008 25.910879 31.673759 35.990398 40.66032 46.456322 51.74448 55.07856" y="0" style="font-size:11.03999996px;font-variant:normal;font-weight:400;writing-mode:lr-tb;fill:#fff;fill-opacity:1;fill-rule:nonzero;stroke:none;font-family:Calibri;-inkscape-font-specification:Calibri">Freundschaft</tspan></text></g></g><path d="m155.81 370.92 128.95-42.25c.26-.09.4-.37.31-.63a.485.485 0 0 0-.63-.32l-128.95 42.25c-.26.09-.4.37-.31.63.08.27.36.41.63.32zm4.08-6-5.18 5.84 7.63 1.63c.27.06.53-.11.59-.38a.488.488 0 0 0-.38-.59l-6.79-1.46.26.82 4.62-5.2c.18-.2.16-.52-.05-.7a.493.493 0 0 0-.7.04zm120.47-31.2 5.18-5.84-7.63-1.63a.493.493 0 0 0-.59.38c-.06.27.11.54.38.59l6.79 1.46-.26-.82-4.62 5.2c-.18.2-.16.52.05.7.2.18.52.17.7-.04z" style="fill:#4579b8;fill-opacity:1;fill-rule:nonzero;stroke:none" transform="matrix(1.25 0 0 -1.25 -79.219 592.744)"/><path d="M183.75 374v-46.5h70.5V374h-70.5zm73.5 3v-52.5h-76.5V377h76.5zm-75-1.5V326h73.5v49.5h-73.5zm0 0V326h73.5v49.5h-73.5z" style="fill:#000;fill-opacity:.38039;fill-rule:nonzero;stroke:none" transform="matrix(1.25 0 0 -1.25 -79.219 592.744)"/><path d="M182.25 327.57h73.5v49.5h-73.5v-49.5z" style="fill:#4bacc6;fill-opacity:1;fill-rule:evenodd;stroke:none" transform="matrix(1.25 0 0 -1.25 -79.219 592.744)"/><path d="M182.25 327.57h73.5v49.5h-73.5v-49.5z" style="fill:none;stroke:#fff;stroke-width:3;stroke-linecap:round;stroke-linejoin:miter;stroke-miterlimit:8;stroke-opacity:1;stroke-dasharray:none" transform="matrix(1.25 0 0 -1.25 -79.219 592.744)"/><g clip-path="url(#ag)" transform="matrix(1.25 0 0 -1.25 -79.219 592.744)"><g clip-path="url(#ah)"><text transform="matrix(1 0 0 -1 194.3 361.51)"><tspan x="0 5.7407999 11.27184 13.81104 19.55184 25.049761 27.46752 32.965439 38.76144 43.906078" y="0" style="font-size:11.03999996px;font-variant:normal;font-weight:400;writing-mode:lr-tb;fill:#fff;fill-opacity:1;fill-rule:nonzero;stroke:none;font-family:Calibri;-inkscape-font-specification:Calibri">Keine enge</tspan></text></g><g clip-path="url(#ai)"><text transform="matrix(1 0 0 -1 195.86 336.07)"><tspan x="0 6.0057602 11.50368 15.86448 18.35952 23.857441 29.65344 35.394241 41.15712" y="0" style="font-size:11.03999996px;font-variant:normal;font-weight:400;writing-mode:lr-tb;fill:#fff;fill-opacity:1;fill-rule:nonzero;stroke:none;font-family:Calibri;-inkscape-font-specification:Calibri">Beziehung</tspan></text></g></g><path d="m402.37 277.95 114.64-92.73c.21-.18.25-.49.07-.71a.502.502 0 0 0-.7-.07l-114.64 92.73c-.21.18-.25.49-.07.71.17.21.48.24.7.07zm1.68-7.06-2.77 7.3L409 277a.496.496 0 1 0-.15-.98l-6.87 1.05.54.67 2.47-6.5a.513.513 0 0 0-.29-.64c-.26-.1-.55.03-.65.29zM514.7 191.5l2.77-7.3-7.72 1.19a.496.496 0 1 0 .15.98l6.87-1.05-.54-.67-2.47 6.5c-.09.25.04.54.29.64.26.1.55-.03.65-.29z" style="fill:#4579b8;fill-opacity:1;fill-rule:nonzero;stroke:none" transform="matrix(1.25 0 0 -1.25 -79.219 592.744)"/><path d="M414.75 256.65v-21.4h75v21.4h-75zm78 3v-27.4h-81v27.4h81zm-79.5-1.5v-24.4h78v24.4h-78zm0 0v-24.4h78v24.4h-78z" style="fill:#000;fill-opacity:.38039;fill-rule:nonzero;stroke:none" transform="matrix(1.25 0 0 -1.25 -79.219 592.744)"/><path d="M413.25 235.32h78v24.4h-78v-24.4z" style="fill:#4f81bd;fill-opacity:1;fill-rule:evenodd;stroke:none" transform="matrix(1.25 0 0 -1.25 -79.219 592.744)"/><path d="M413.25 235.32h78v24.4h-78v-24.4z" style="fill:none;stroke:#fff;stroke-width:3;stroke-linecap:round;stroke-linejoin:miter;stroke-miterlimit:8;stroke-opacity:1;stroke-dasharray:none" transform="matrix(1.25 0 0 -1.25 -79.219 592.744)"/><g clip-path="url(#aj)" transform="matrix(1.25 0 0 -1.25 -79.219 592.744)"><g clip-path="url(#ak)"><text transform="matrix(1 0 0 -1 421.97 244.13)"><tspan x="0 5.0673599 8.8761597 14.37408 20.17008 25.910879 31.673759 35.990398 40.66032 46.456322 51.74448 55.07856" y="0" style="font-size:11.03999996px;font-variant:normal;font-weight:400;writing-mode:lr-tb;fill:#fff;fill-opacity:1;fill-rule:nonzero;stroke:none;font-family:Calibri;-inkscape-font-specification:Calibri">Freundschaft</tspan></text></g></g><path d="m383.6 258.05 115.45-98.3c.21-.18.24-.5.06-.71a.505.505 0 0 0-.71-.05l-115.45 98.3c-.21.18-.24.5-.06.71.18.21.5.23.71.05zm1.5-7.1-2.58 7.37 7.68-1.38a.499.499 0 0 0-.18-.98l-6.84 1.22.56.66 2.3-6.56c.1-.26-.04-.54-.3-.63a.501.501 0 0 0-.64.3zm111.8-84.86 2.58-7.37-7.68 1.38a.499.499 0 0 0 .18.98l6.84-1.22-.56-.66-2.3 6.56c-.1.26.04.54.3.63.26.09.55-.04.64-.3zm-139.61 84.59L517.14 99.058a.492.492 0 0 0 .02-.707.491.491 0 0 0-.7-.019L356.61 249.96c-.2.19-.21.5-.02.7.19.2.5.21.7.02zM515.33 105.5l2.19-7.486-7.6 1.786a.498.498 0 0 0-.37.6c.06.27.33.44.6.37l6.76-1.587-.59-.626-1.95 6.673c-.07.26.08.54.34.62.27.07.55-.08.62-.35z" style="fill:#4579b8;fill-opacity:1;fill-rule:nonzero;stroke:none" transform="matrix(1.25 0 0 -1.25 -79.219 592.744)"/><path d="M446.71 208.32 432 203.86l13.2-5.14-4.48-1.52 12.5-4.8-3.84-1.17 20.12-7.66-11.86 10 3.14.99-9.6 5.97 3.15.82-7.62 6.97z" style="fill:#4f81bd;fill-opacity:1;fill-rule:evenodd;stroke:none" transform="matrix(1.25 0 0 -1.25 -79.219 592.744)"/><path d="M446.71 208.32 432 203.86l13.2-5.14-4.48-1.52 12.5-4.8-3.84-1.17 20.12-7.66-11.86 10 3.14.99-9.6 5.97 3.15.82-7.62 6.97z" style="fill:none;stroke:#243f60;stroke-width:2;stroke-linecap:round;stroke-linejoin:miter;stroke-miterlimit:8;stroke-opacity:1;stroke-dasharray:none" transform="matrix(1.25 0 0 -1.25 -79.219 592.744)"/><path d="M396 167.75V146h72v21.75h-72zm75 3V143h-78v27.75h78zm-76.5-1.5V144.5h75v24.75h-75zm0 0V144.5h75v24.75h-75z" style="fill:#000;fill-opacity:.38039;fill-rule:nonzero;stroke:none" transform="matrix(1.25 0 0 -1.25 -79.219 592.744)"/><path d="M394.5 146.07h75v24.75h-75v-24.75z" style="fill:#000;fill-opacity:1;fill-rule:evenodd;stroke:none" transform="matrix(1.25 0 0 -1.25 -79.219 592.744)"/><path d="M394.5 146.07h75v24.75h-75v-24.75z" style="fill:none;stroke:#fff;stroke-width:3;stroke-linecap:round;stroke-linejoin:miter;stroke-miterlimit:8;stroke-opacity:1;stroke-dasharray:none" transform="matrix(1.25 0 0 -1.25 -79.219 592.744)"/><g clip-path="url(#al)" transform="matrix(1.25 0 0 -1.25 -79.219 592.744)"><g clip-path="url(#am)"><text transform="matrix(1 0 0 -1 403.37 155.21)"><tspan x="0 6.2596798 12.11088 15.96384 21.10848 26.6064 30.92304 36.343681 40.04208 44.402882 48.10128 53.599201" y="0" style="font-size:11.03999996px;font-variant:normal;font-weight:400;writing-mode:lr-tb;fill:#fff;fill-opacity:1;fill-rule:nonzero;stroke:none;font-family:Calibri;-inkscape-font-specification:Calibri">Vorgesetzter</tspan></text></g></g><path d="m718.51 300.02-299.5-5.91c-.28-.01-.5.21-.51.49-.01.28.21.5.49.51l299.5 5.91c.28.01.5-.21.51-.49.01-.28-.21-.5-.49-.51zm-293.69-9.23-6.81 3.8 6.66 4.06c.23.15.54.07.69-.16.14-.24.07-.55-.17-.69l-5.93-3.62-.02.87 6.07-3.38c.24-.14.33-.44.19-.68a.495.495 0 0 0-.68-.2z" style="fill:#4579b8;fill-opacity:1;fill-rule:nonzero;stroke:none" transform="matrix(1.25 0 0 -1.25 -79.219 592.744)"/><path d="m676.5 327.57 37.5 20.25m-37.5-20.25H714" style="fill:none;stroke:#4579b8;stroke-width:.75;stroke-linecap:round;stroke-linejoin:round;stroke-miterlimit:8;stroke-opacity:1;stroke-dasharray:none" transform="matrix(1.25 0 0 -1.25 -79.219 592.744)"/><path d="m422.48 324.95 93.72 32.49c.26.09.54-.05.63-.31a.498.498 0 0 0-.31-.64L422.8 324a.495.495 0 0 0-.63.31c-.09.26.05.55.31.64zm6.88-2.31-7.66 1.51 5.08 5.92c.18.21.5.24.71.06.21-.18.23-.5.05-.71l-4.52-5.27-.28.82 6.81-1.35c.27-.05.45-.31.4-.58a.514.514 0 0 0-.59-.4zm80.28 36.16 7.66-1.51-5.08-5.92a.506.506 0 0 0-.71-.06c-.21.18-.23.5-.05.71l4.52 5.27.28-.82-6.81 1.35c-.27.05-.45.31-.4.58.06.27.32.45.59.4zm-87.17-18.84L538 380.63c.26.09.54-.05.64-.31a.51.51 0 0 0-.31-.64L422.8 339.01a.51.51 0 0 0-.64.31c-.09.26.05.54.31.64zm6.89-2.28-7.66 1.47 5.05 5.95c.18.21.5.24.71.06.21-.18.23-.5.05-.71l-4.49-5.29-.29.82 6.82-1.31c.27-.06.45-.32.4-.59a.504.504 0 0 0-.59-.4zm102.08 44.28 7.66-1.47-5.05-5.95a.506.506 0 0 0-.71-.06c-.21.18-.23.5-.06.71l4.5 5.29.29-.82-6.82 1.31c-.27.06-.45.32-.4.59.05.27.31.45.59.4zm-129.26-23.14 120.03 47.23c.25.1.54-.02.64-.28a.49.49 0 0 0-.28-.65l-120.03-47.23a.49.49 0 0 0-.64.28c-.11.26.02.55.28.65zm6.97-2.02-7.71 1.19 4.83 6.13c.17.21.49.25.7.08.22-.17.26-.49.09-.7l-4.31-5.46-.31.81 6.86-1.06c.28-.05.46-.3.42-.57a.498.498 0 0 0-.57-.42zm106.45 50.34 7.71-1.19-4.83-6.13a.505.505 0 0 0-.7-.08c-.22.17-.26.49-.09.7l4.31 5.46.31-.81-6.86 1.06c-.28.05-.46.3-.42.57.04.28.3.46.57.42zm86.43-.48 99.52-7.93a.51.51 0 0 0 .46-.54.509.509 0 0 0-.54-.46l-99.52 7.93c-.27.02-.48.27-.45.54.02.28.26.48.53.46zm5.38-4.88-6.41 4.46 7.04 3.38c.24.12.54.02.66-.23a.5.5 0 0 0-.23-.67l-6.26-3.01.07.86 5.7-3.96a.51.51 0 0 0 .13-.7.51.51 0 0 0-.7-.13zm88.68.83 6.41-4.46-7.04-3.38a.492.492 0 0 0-.66.23.5.5 0 0 0 .23.67l6.26 3.01-.07-.86-5.7 3.96a.51.51 0 0 0-.13.7c.16.23.47.28.7.13z" style="fill:#4579b8;fill-opacity:1;fill-rule:nonzero;stroke:none" transform="matrix(1.25 0 0 -1.25 -79.219 592.744)"/><path d="M612 416.75V398h75.75v18.75H612zm78.75 3V395H609v24.75h81.75zm-80.25-1.5V396.5h78.75v21.75H610.5zm0 0V396.5h78.75v21.75H610.5z" style="fill:#000;fill-opacity:.38039;fill-rule:nonzero;stroke:none" transform="matrix(1.25 0 0 -1.25 -79.219 592.744)"/><path d="M610.5 398.07h78.75v21.75H610.5v-21.75z" style="fill:#4f81bd;fill-opacity:1;fill-rule:evenodd;stroke:none" transform="matrix(1.25 0 0 -1.25 -79.219 592.744)"/><path d="M610.5 398.07h78.75v21.75H610.5v-21.75z" style="fill:none;stroke:#fff;stroke-width:3;stroke-linecap:round;stroke-linejoin:miter;stroke-miterlimit:8;stroke-opacity:1;stroke-dasharray:none" transform="matrix(1.25 0 0 -1.25 -79.219 592.744)"/><g clip-path="url(#an)" transform="matrix(1.25 0 0 -1.25 -79.219 592.744)"><g clip-path="url(#ao)"><text transform="matrix(1 0 0 -1 619.27 404.23)"><tspan x="0 5.0673599 8.8761597 14.37408 20.17008 25.910879 31.673759 35.990398 40.66032 46.456322 51.74448 55.07856" y="0" style="font-size:11.03999996px;font-variant:normal;font-weight:400;writing-mode:lr-tb;fill:#fff;fill-opacity:1;fill-rule:nonzero;stroke:none;font-family:Calibri;-inkscape-font-specification:Calibri">Freundschaft</tspan></text></g></g><path d="M414.75 403.25V366.5h60v36.75h-60zm63 3V363.5h-66v42.75h66zm-64.5-1.5V365h63v39.75h-63zm0 0V365h63v39.75h-63z" style="fill:#000;fill-opacity:.38039;fill-rule:nonzero;stroke:none" transform="matrix(1.25 0 0 -1.25 -79.219 592.744)"/><path d="M413.25 366.57h63v39.75h-63v-39.75z" style="fill:#9bbb59;fill-opacity:1;fill-rule:evenodd;stroke:none" transform="matrix(1.25 0 0 -1.25 -79.219 592.744)"/><path d="M413.25 366.57h63v39.75h-63v-39.75z" style="fill:none;stroke:#fff;stroke-width:3;stroke-linecap:round;stroke-linejoin:miter;stroke-miterlimit:8;stroke-opacity:1;stroke-dasharray:none" transform="matrix(1.25 0 0 -1.25 -79.219 592.744)"/><g clip-path="url(#ap)" transform="matrix(1.25 0 0 -1.25 -79.219 592.744)"><g clip-path="url(#aq)"><text transform="matrix(1 0 0 -1 425.33 390.79)"><tspan x="0 5.0342398 10.53216 14.38512 18.083521 20.51232 24.21072 27.94224 30.337919 36.07872 38.860802" y="0" style="font-size:11.03999996px;font-variant:normal;font-weight:400;writing-mode:lr-tb;fill:#fff;fill-opacity:1;fill-rule:nonzero;stroke:none;font-family:Calibri;-inkscape-font-specification:Calibri">vertitt K. </tspan></text></g><g clip-path="url(#ar)"><text transform="matrix(1 0 0 -1 424.85 375.31)"><tspan x="0 3.6984 9.2294397 11.76864 14.27472 22.16832 27.69936 30.095039 34.411678" y="0" style="font-size:11.03999996px;font-variant:normal;font-weight:400;writing-mode:lr-tb;fill:#fff;fill-opacity:1;fill-rule:nonzero;stroke:none;font-family:Calibri;-inkscape-font-specification:Calibri">teilweise</tspan></text></g><g clip-path="url(#as)"><text transform="matrix(1 0 0 -1 424.85 324.43)"><tspan x="0 3.6984 9.2294397 11.76864 14.27472 22.16832 27.69936 30.095039 34.411678" y="0" style="font-size:11.03999996px;font-variant:normal;font-weight:400;writing-mode:lr-tb;fill:#000;fill-opacity:1;fill-rule:nonzero;stroke:none;font-family:Calibri;-inkscape-font-specification:Calibri">teilweise</tspan></text></g></g><path d="m739.5 235.34 3.48-97.75a.502.502 0 0 0-.48-.52c-.28-.01-.51.2-.52.48l-3.48 97.75c-.01.28.21.51.48.52.28.01.51-.21.52-.48zm6.7-91.89-3.69-6.87-4.17 6.59c-.14.24-.07.55.16.69a.5.5 0 0 0 .69-.15l3.71-5.87-.86-.03 3.28 6.12c.13.24.44.33.68.2.24-.13.33-.43.2-.68z" style="fill:#4579b8;fill-opacity:1;fill-rule:nonzero;stroke:none" transform="matrix(1.25 0 0 -1.25 -79.219 592.744)"/><path d="M690.75 128V73.995H792V128H690.75zM795 131V70.995H687.75V131H795zm-105.75-1.5V72.495H793.5V129.5H689.25zm0 0V72.495H793.5V129.5H689.25z" style="fill:#000;fill-opacity:.38039;fill-rule:nonzero;stroke:none" transform="matrix(1.25 0 0 -1.25 -79.219 592.744)"/><path d="M689.25 74.07H793.5v57H689.25v-57z" style="fill:#9bbb59;fill-opacity:1;fill-rule:evenodd;stroke:none" transform="matrix(1.25 0 0 -1.25 -79.219 592.744)"/><path d="M689.25 74.07H793.5v57H689.25v-57z" style="fill:none;stroke:#fff;stroke-width:3;stroke-linecap:round;stroke-linejoin:miter;stroke-miterlimit:8;stroke-opacity:1;stroke-dasharray:none" transform="matrix(1.25 0 0 -1.25 -79.219 592.744)"/><g clip-path="url(#at)" transform="matrix(1.25 0 0 -1.25 -79.219 592.744)"><g clip-path="url(#au)"><text transform="matrix(1 0 0 -1 700.06 115.58)"><tspan x="0 9.4723196 14.76048 19.430401 25.193279 28.79232 33.826561 39.324478 43.177441 48.973438 54.228481 56.767681 60.46608 66.228958 68.768158 73.084801 77.268959 82.766876" y="0" style="font-size:11.03999996px;font-variant:normal;font-weight:400;writing-mode:lr-tb;fill:#000;fill-opacity:1;fill-rule:nonzero;stroke:none;font-family:Calibri;-inkscape-font-specification:Calibri">Machtverhältnisse </tspan></text></g><g clip-path="url(#av)"><text transform="matrix(1 0 0 -1 727.3 99.984)"><tspan x="0 5.7628798 11.52576 16.54896 19.08816 24.37632" y="0" style="font-size:11.03999996px;font-variant:normal;font-weight:400;writing-mode:lr-tb;fill:#000;fill-opacity:1;fill-rule:nonzero;stroke:none;font-family:Calibri;-inkscape-font-specification:Calibri">unklar</tspan></text></g></g><path d="M563.6 284.27h68.9v21.05h-68.9v-21.05z" style="fill:#974706;fill-opacity:1;fill-rule:evenodd;stroke:none" transform="matrix(1.25 0 0 -1.25 -79.219 592.744)"/><path d="M562.6 286.27h68.9v21.05h-68.9v-21.05z" style="fill:url(#aw);fill-opacity:1;fill-rule:evenodd;stroke:none" transform="matrix(1.25 0 0 -1.25 -79.219 592.744)"/><path d="M562.6 286.27h68.9v21.05h-68.9v-21.05z" style="fill:none;stroke:#f79646;stroke-width:1;stroke-linecap:round;stroke-linejoin:miter;stroke-miterlimit:8;stroke-opacity:1;stroke-dasharray:none" transform="matrix(1.25 0 0 -1.25 -79.219 592.744)"/><g clip-path="url(#ax)" transform="matrix(1.25 0 0 -1.25 -79.219 592.744)"><g clip-path="url(#ay)"><text transform="matrix(1 0 0 -1 570.43 292.75)"><tspan x="0 6.8448 9.3839998 15.1248 18.97776 21.51696 26.18688 31.927679 35.62608 41.422081 47.16288" y="0" style="font-size:11.03999996px;font-variant:normal;font-weight:400;writing-mode:lr-tb;fill:#000;fill-opacity:1;fill-rule:nonzero;stroke:none;font-family:Calibri;-inkscape-font-specification:Calibri">Hinrichtung</tspan></text></g></g><path d="M470.5 305.32h70.55v19.65H470.5v-19.65z" style="fill:#974706;fill-opacity:1;fill-rule:evenodd;stroke:none" transform="matrix(1.25 0 0 -1.25 -79.219 592.744)"/><path d="M469.5 307.32h70.55v19.65H469.5v-19.65z" style="fill:url(#az);fill-opacity:1;fill-rule:evenodd;stroke:none" transform="matrix(1.25 0 0 -1.25 -79.219 592.744)"/><path d="M469.5 307.32h70.55v19.65H469.5v-19.65z" style="fill:none;stroke:#f79646;stroke-width:1;stroke-linecap:round;stroke-linejoin:miter;stroke-miterlimit:8;stroke-opacity:1;stroke-dasharray:none" transform="matrix(1.25 0 0 -1.25 -79.219 592.744)"/><g clip-path="url(#aA)" transform="matrix(1.25 0 0 -1.25 -79.219 592.744)"><g clip-path="url(#aB)"><text transform="matrix(1 0 0 -1 477.31 312.43)"><tspan x="0 6.2596798 11.7576 15.61056 21.3624 26.65056 30.017759 33.71616 39.512161 45.24192" y="0" style="font-size:11.03999996px;font-variant:normal;font-weight:400;writing-mode:lr-tb;fill:#000;fill-opacity:1;fill-rule:nonzero;stroke:none;font-family:Calibri;-inkscape-font-specification:Calibri">Verhaftung</tspan></text></g></g><path d="M220.5 282.57h48v21.75h-48v-21.75z" style="fill:#c0504d;fill-opacity:1;fill-rule:evenodd;stroke:none" transform="matrix(1.25 0 0 -1.25 -79.219 592.744)"/><path d="M220.5 282.57h48v21.75h-48v-21.75z" style="fill:none;stroke:#622423;stroke-width:2;stroke-linecap:round;stroke-linejoin:miter;stroke-miterlimit:8;stroke-opacity:1;stroke-dasharray:none" transform="matrix(1.25 0 0 -1.25 -79.219 592.744)"/><g clip-path="url(#aC)" transform="matrix(1.25 0 0 -1.25 -79.219 592.744)"><g clip-path="url(#aD)"><text transform="matrix(1 0 0 -1 236.9 289.27)"><tspan x="0 5.0673599 10.56528" y="0" style="font-size:11.03999996px;font-variant:normal;font-weight:400;writing-mode:lr-tb;fill:#fff;fill-opacity:1;fill-rule:nonzero;stroke:none;font-family:Calibri;-inkscape-font-specification:Calibri">Sex</tspan></text></g></g></svg>